<mxfile host="app.diagrams.net" agent="Mozilla/5.0 (Windows NT 10.0; Win64; x64) AppleWebKit/537.36 (KHTML, like Gecko) Chrome/127.0.0.0 Safari/537.36" version="26.0.11">
  <diagram name="Страница — 1" id="82ZXLPhcrXQWVRTzGSwM">
    <mxGraphModel dx="2577" dy="942" grid="1" gridSize="10" guides="1" tooltips="1" connect="1" arrows="1" fold="1" page="1" pageScale="1" pageWidth="827" pageHeight="1169" math="0" shadow="0">
      <root>
        <mxCell id="0" />
        <mxCell id="1" parent="0" />
        <mxCell id="wJVDtzto6iilkjuluCDq-61" value="Туристический оператор" style="swimlane;html=1;startSize=20;fontStyle=0;collapsible=0;horizontal=0;swimlaneLine=1;swimlaneFillColor=#ffffff;strokeWidth=2;whiteSpace=wrap;" vertex="1" parent="1">
          <mxGeometry x="-70" y="1200" width="2070" height="390" as="geometry" />
        </mxCell>
        <mxCell id="wJVDtzto6iilkjuluCDq-63" value="Подобрать тур пакеты по требуемым параметрам" style="points=[[0.25,0,0],[0.5,0,0],[0.75,0,0],[1,0.25,0],[1,0.5,0],[1,0.75,0],[0.75,1,0],[0.5,1,0],[0.25,1,0],[0,0.75,0],[0,0.5,0],[0,0.25,0]];shape=mxgraph.bpmn.task2;whiteSpace=wrap;rectStyle=rounded;size=10;html=1;container=1;expand=0;collapsible=0;taskMarker=manual;" vertex="1" parent="wJVDtzto6iilkjuluCDq-61">
          <mxGeometry x="490" y="80" width="120" height="80" as="geometry" />
        </mxCell>
        <mxCell id="wJVDtzto6iilkjuluCDq-65" value="Проверить документы" style="points=[[0.25,0,0],[0.5,0,0],[0.75,0,0],[1,0.25,0],[1,0.5,0],[1,0.75,0],[0.75,1,0],[0.5,1,0],[0.25,1,0],[0,0.75,0],[0,0.5,0],[0,0.25,0]];shape=mxgraph.bpmn.task2;whiteSpace=wrap;rectStyle=rounded;size=10;html=1;container=1;expand=0;collapsible=0;taskMarker=manual;" vertex="1" parent="wJVDtzto6iilkjuluCDq-61">
          <mxGeometry x="1050" y="205" width="120" height="80" as="geometry" />
        </mxCell>
        <mxCell id="wJVDtzto6iilkjuluCDq-66" value="Забронировать гостиницу" style="points=[[0.25,0,0],[0.5,0,0],[0.75,0,0],[1,0.25,0],[1,0.5,0],[1,0.75,0],[0.75,1,0],[0.5,1,0],[0.25,1,0],[0,0.75,0],[0,0.5,0],[0,0.25,0]];shape=mxgraph.bpmn.task2;whiteSpace=wrap;rectStyle=rounded;size=10;html=1;container=1;expand=0;collapsible=0;taskMarker=manual;" vertex="1" parent="wJVDtzto6iilkjuluCDq-61">
          <mxGeometry x="1310" y="120" width="120" height="80" as="geometry" />
        </mxCell>
        <mxCell id="wJVDtzto6iilkjuluCDq-67" value="" style="points=[[0.25,0.25,0],[0.5,0,0],[0.75,0.25,0],[1,0.5,0],[0.75,0.75,0],[0.5,1,0],[0.25,0.75,0],[0,0.5,0]];shape=mxgraph.bpmn.gateway2;html=1;verticalLabelPosition=bottom;labelBackgroundColor=#ffffff;verticalAlign=top;align=center;perimeter=rhombusPerimeter;outlineConnect=0;outline=standard;symbol=multiple;" vertex="1" parent="wJVDtzto6iilkjuluCDq-61">
          <mxGeometry x="1210" y="220" width="50" height="50" as="geometry" />
        </mxCell>
        <mxCell id="wJVDtzto6iilkjuluCDq-77" style="edgeStyle=orthogonalEdgeStyle;rounded=0;orthogonalLoop=1;jettySize=auto;html=1;exitX=1;exitY=0.5;exitDx=0;exitDy=0;exitPerimeter=0;entryX=0.5;entryY=1;entryDx=0;entryDy=0;entryPerimeter=0;" edge="1" parent="wJVDtzto6iilkjuluCDq-61" source="wJVDtzto6iilkjuluCDq-68" target="wJVDtzto6iilkjuluCDq-75">
          <mxGeometry relative="1" as="geometry">
            <mxPoint x="1480" y="260" as="targetPoint" />
          </mxGeometry>
        </mxCell>
        <mxCell id="wJVDtzto6iilkjuluCDq-68" value="Выкупить билеты на самолет" style="points=[[0.25,0,0],[0.5,0,0],[0.75,0,0],[1,0.25,0],[1,0.5,0],[1,0.75,0],[0.75,1,0],[0.5,1,0],[0.25,1,0],[0,0.75,0],[0,0.5,0],[0,0.25,0]];shape=mxgraph.bpmn.task2;whiteSpace=wrap;rectStyle=rounded;size=10;html=1;container=1;expand=0;collapsible=0;taskMarker=manual;" vertex="1" parent="wJVDtzto6iilkjuluCDq-61">
          <mxGeometry x="1310" y="280" width="120" height="80" as="geometry" />
        </mxCell>
        <mxCell id="wJVDtzto6iilkjuluCDq-69" style="edgeStyle=orthogonalEdgeStyle;rounded=0;orthogonalLoop=1;jettySize=auto;html=1;exitX=1;exitY=0.5;exitDx=0;exitDy=0;exitPerimeter=0;entryX=0;entryY=0.5;entryDx=0;entryDy=0;entryPerimeter=0;" edge="1" parent="wJVDtzto6iilkjuluCDq-61" source="wJVDtzto6iilkjuluCDq-65" target="wJVDtzto6iilkjuluCDq-67">
          <mxGeometry relative="1" as="geometry" />
        </mxCell>
        <mxCell id="wJVDtzto6iilkjuluCDq-70" style="edgeStyle=orthogonalEdgeStyle;rounded=0;orthogonalLoop=1;jettySize=auto;html=1;exitX=0.5;exitY=0;exitDx=0;exitDy=0;exitPerimeter=0;entryX=0;entryY=0.5;entryDx=0;entryDy=0;entryPerimeter=0;" edge="1" parent="wJVDtzto6iilkjuluCDq-61" source="wJVDtzto6iilkjuluCDq-67" target="wJVDtzto6iilkjuluCDq-66">
          <mxGeometry relative="1" as="geometry" />
        </mxCell>
        <mxCell id="wJVDtzto6iilkjuluCDq-71" style="edgeStyle=orthogonalEdgeStyle;rounded=0;orthogonalLoop=1;jettySize=auto;html=1;exitX=0.5;exitY=1;exitDx=0;exitDy=0;exitPerimeter=0;entryX=0;entryY=0.5;entryDx=0;entryDy=0;entryPerimeter=0;" edge="1" parent="wJVDtzto6iilkjuluCDq-61" source="wJVDtzto6iilkjuluCDq-67" target="wJVDtzto6iilkjuluCDq-68">
          <mxGeometry relative="1" as="geometry" />
        </mxCell>
        <mxCell id="wJVDtzto6iilkjuluCDq-79" style="edgeStyle=orthogonalEdgeStyle;rounded=0;orthogonalLoop=1;jettySize=auto;html=1;exitX=1;exitY=0.5;exitDx=0;exitDy=0;exitPerimeter=0;" edge="1" parent="wJVDtzto6iilkjuluCDq-61" source="wJVDtzto6iilkjuluCDq-75" target="wJVDtzto6iilkjuluCDq-78">
          <mxGeometry relative="1" as="geometry" />
        </mxCell>
        <mxCell id="wJVDtzto6iilkjuluCDq-75" value="" style="points=[[0.25,0.25,0],[0.5,0,0],[0.75,0.25,0],[1,0.5,0],[0.75,0.75,0],[0.5,1,0],[0.25,0.75,0],[0,0.5,0]];shape=mxgraph.bpmn.gateway2;html=1;verticalLabelPosition=bottom;labelBackgroundColor=#ffffff;verticalAlign=top;align=center;perimeter=rhombusPerimeter;outlineConnect=0;outline=standard;symbol=multiple;" vertex="1" parent="wJVDtzto6iilkjuluCDq-61">
          <mxGeometry x="1450" y="220" width="50" height="50" as="geometry" />
        </mxCell>
        <mxCell id="wJVDtzto6iilkjuluCDq-76" style="edgeStyle=orthogonalEdgeStyle;rounded=0;orthogonalLoop=1;jettySize=auto;html=1;exitX=1;exitY=0.5;exitDx=0;exitDy=0;exitPerimeter=0;entryX=0.5;entryY=0;entryDx=0;entryDy=0;entryPerimeter=0;" edge="1" parent="wJVDtzto6iilkjuluCDq-61" source="wJVDtzto6iilkjuluCDq-66" target="wJVDtzto6iilkjuluCDq-75">
          <mxGeometry relative="1" as="geometry" />
        </mxCell>
        <mxCell id="wJVDtzto6iilkjuluCDq-78" value="Отправить ваучер на заселение и билеты" style="points=[[0.25,0,0],[0.5,0,0],[0.75,0,0],[1,0.25,0],[1,0.5,0],[1,0.75,0],[0.75,1,0],[0.5,1,0],[0.25,1,0],[0,0.75,0],[0,0.5,0],[0,0.25,0]];shape=mxgraph.bpmn.task2;whiteSpace=wrap;rectStyle=rounded;size=10;html=1;container=1;expand=0;collapsible=0;taskMarker=manual;" vertex="1" parent="wJVDtzto6iilkjuluCDq-61">
          <mxGeometry x="1540" y="205" width="120" height="80" as="geometry" />
        </mxCell>
        <mxCell id="wJVDtzto6iilkjuluCDq-86" value="Уведомить об изменениях" style="points=[[0.25,0,0],[0.5,0,0],[0.75,0,0],[1,0.25,0],[1,0.5,0],[1,0.75,0],[0.75,1,0],[0.5,1,0],[0.25,1,0],[0,0.75,0],[0,0.5,0],[0,0.25,0]];shape=mxgraph.bpmn.task2;whiteSpace=wrap;rectStyle=rounded;size=10;html=1;container=1;expand=0;collapsible=0;taskMarker=manual;" vertex="1" parent="wJVDtzto6iilkjuluCDq-61">
          <mxGeometry x="1680" y="205" width="140" height="80" as="geometry" />
        </mxCell>
        <mxCell id="wJVDtzto6iilkjuluCDq-2" value="Туристическое агентство" style="swimlane;html=1;startSize=20;fontStyle=0;collapsible=0;horizontal=0;swimlaneLine=1;swimlaneFillColor=#ffffff;strokeWidth=2;whiteSpace=wrap;" vertex="1" parent="1">
          <mxGeometry x="-70" y="700" width="2070" height="500" as="geometry" />
        </mxCell>
        <mxCell id="wJVDtzto6iilkjuluCDq-4" value="" style="points=[[0.145,0.145,0],[0.5,0,0],[0.855,0.145,0],[1,0.5,0],[0.855,0.855,0],[0.5,1,0],[0.145,0.855,0],[0,0.5,0]];shape=mxgraph.bpmn.event;html=1;verticalLabelPosition=bottom;labelBackgroundColor=#ffffff;verticalAlign=top;align=center;perimeter=ellipsePerimeter;outlineConnect=0;aspect=fixed;outline=standard;symbol=message;" vertex="1" parent="wJVDtzto6iilkjuluCDq-2">
          <mxGeometry x="80" y="175" width="50" height="50" as="geometry" />
        </mxCell>
        <mxCell id="wJVDtzto6iilkjuluCDq-5" value="Заявка на тур" style="text;strokeColor=none;align=center;fillColor=none;html=1;verticalAlign=middle;whiteSpace=wrap;rounded=0;" vertex="1" parent="wJVDtzto6iilkjuluCDq-2">
          <mxGeometry x="75" y="240" width="60" height="30" as="geometry" />
        </mxCell>
        <mxCell id="wJVDtzto6iilkjuluCDq-6" value="Зафиксировать заявку" style="points=[[0.25,0,0],[0.5,0,0],[0.75,0,0],[1,0.25,0],[1,0.5,0],[1,0.75,0],[0.75,1,0],[0.5,1,0],[0.25,1,0],[0,0.75,0],[0,0.5,0],[0,0.25,0]];shape=mxgraph.bpmn.task2;whiteSpace=wrap;rectStyle=rounded;size=10;html=1;container=1;expand=0;collapsible=0;taskMarker=manual;" vertex="1" parent="wJVDtzto6iilkjuluCDq-2">
          <mxGeometry x="170" y="160" width="120" height="80" as="geometry" />
        </mxCell>
        <mxCell id="wJVDtzto6iilkjuluCDq-7" style="edgeStyle=orthogonalEdgeStyle;rounded=0;orthogonalLoop=1;jettySize=auto;html=1;exitX=1;exitY=0.5;exitDx=0;exitDy=0;exitPerimeter=0;entryX=0;entryY=0.5;entryDx=0;entryDy=0;entryPerimeter=0;" edge="1" parent="wJVDtzto6iilkjuluCDq-2" source="wJVDtzto6iilkjuluCDq-4" target="wJVDtzto6iilkjuluCDq-6">
          <mxGeometry relative="1" as="geometry" />
        </mxCell>
        <mxCell id="wJVDtzto6iilkjuluCDq-8" value="Узнать пожелания заказчика" style="points=[[0.25,0,0],[0.5,0,0],[0.75,0,0],[1,0.25,0],[1,0.5,0],[1,0.75,0],[0.75,1,0],[0.5,1,0],[0.25,1,0],[0,0.75,0],[0,0.5,0],[0,0.25,0]];shape=mxgraph.bpmn.task2;whiteSpace=wrap;rectStyle=rounded;size=10;html=1;container=1;expand=0;collapsible=0;taskMarker=manual;" vertex="1" parent="wJVDtzto6iilkjuluCDq-2">
          <mxGeometry x="330" y="160" width="120" height="80" as="geometry" />
        </mxCell>
        <mxCell id="wJVDtzto6iilkjuluCDq-9" style="edgeStyle=orthogonalEdgeStyle;rounded=0;orthogonalLoop=1;jettySize=auto;html=1;exitX=1;exitY=0.5;exitDx=0;exitDy=0;exitPerimeter=0;entryX=0;entryY=0.5;entryDx=0;entryDy=0;entryPerimeter=0;" edge="1" parent="wJVDtzto6iilkjuluCDq-2" source="wJVDtzto6iilkjuluCDq-6" target="wJVDtzto6iilkjuluCDq-8">
          <mxGeometry relative="1" as="geometry" />
        </mxCell>
        <mxCell id="wJVDtzto6iilkjuluCDq-10" style="edgeStyle=orthogonalEdgeStyle;rounded=0;orthogonalLoop=1;jettySize=auto;html=1;entryX=0.5;entryY=0;entryDx=0;entryDy=0;entryPerimeter=0;dashed=1;startArrow=oval;startFill=0;endArrow=blockThin;endFill=0;" edge="1" parent="wJVDtzto6iilkjuluCDq-2" target="wJVDtzto6iilkjuluCDq-4">
          <mxGeometry relative="1" as="geometry">
            <mxPoint x="105" as="sourcePoint" />
          </mxGeometry>
        </mxCell>
        <mxCell id="wJVDtzto6iilkjuluCDq-11" style="edgeStyle=orthogonalEdgeStyle;rounded=0;orthogonalLoop=1;jettySize=auto;html=1;entryX=0.5;entryY=0;entryDx=0;entryDy=0;entryPerimeter=0;dashed=1;startArrow=oval;startFill=0;endArrow=blockThin;endFill=0;" edge="1" parent="wJVDtzto6iilkjuluCDq-2">
          <mxGeometry relative="1" as="geometry">
            <mxPoint x="390" as="sourcePoint" />
            <mxPoint x="389.5" y="160" as="targetPoint" />
          </mxGeometry>
        </mxCell>
        <mxCell id="wJVDtzto6iilkjuluCDq-54" style="edgeStyle=orthogonalEdgeStyle;rounded=0;orthogonalLoop=1;jettySize=auto;html=1;entryX=0.416;entryY=1.027;entryDx=0;entryDy=0;entryPerimeter=0;dashed=1;startArrow=oval;startFill=0;endArrow=block;endFill=0;exitX=0.663;exitY=0.007;exitDx=0;exitDy=0;exitPerimeter=0;" edge="1" parent="wJVDtzto6iilkjuluCDq-2" source="wJVDtzto6iilkjuluCDq-63">
          <mxGeometry relative="1" as="geometry">
            <mxPoint x="570.0000000000001" y="240.00000000000009" as="targetPoint" />
            <mxPoint x="570" y="570" as="sourcePoint" />
            <Array as="points">
              <mxPoint x="570" y="369" />
            </Array>
          </mxGeometry>
        </mxCell>
        <mxCell id="wJVDtzto6iilkjuluCDq-12" value="Сформировать предложения" style="points=[[0.25,0,0],[0.5,0,0],[0.75,0,0],[1,0.25,0],[1,0.5,0],[1,0.75,0],[0.75,1,0],[0.5,1,0],[0.25,1,0],[0,0.75,0],[0,0.5,0],[0,0.25,0]];shape=mxgraph.bpmn.task2;whiteSpace=wrap;rectStyle=rounded;size=10;html=1;container=1;expand=0;collapsible=0;taskMarker=manual;" vertex="1" parent="wJVDtzto6iilkjuluCDq-2">
          <mxGeometry x="480" y="160" width="120" height="80" as="geometry" />
        </mxCell>
        <mxCell id="wJVDtzto6iilkjuluCDq-13" style="edgeStyle=orthogonalEdgeStyle;rounded=0;orthogonalLoop=1;jettySize=auto;html=1;exitX=1;exitY=0.5;exitDx=0;exitDy=0;exitPerimeter=0;entryX=0;entryY=0.5;entryDx=0;entryDy=0;entryPerimeter=0;" edge="1" parent="wJVDtzto6iilkjuluCDq-2" source="wJVDtzto6iilkjuluCDq-8" target="wJVDtzto6iilkjuluCDq-12">
          <mxGeometry relative="1" as="geometry" />
        </mxCell>
        <mxCell id="wJVDtzto6iilkjuluCDq-27" style="edgeStyle=orthogonalEdgeStyle;rounded=0;orthogonalLoop=1;jettySize=auto;html=1;exitX=1;exitY=0.5;exitDx=0;exitDy=0;exitPerimeter=0;entryX=0.5;entryY=0;entryDx=0;entryDy=0;entryPerimeter=0;" edge="1" parent="wJVDtzto6iilkjuluCDq-2" source="wJVDtzto6iilkjuluCDq-15" target="wJVDtzto6iilkjuluCDq-26">
          <mxGeometry relative="1" as="geometry">
            <mxPoint x="1010" y="160" as="targetPoint" />
          </mxGeometry>
        </mxCell>
        <mxCell id="wJVDtzto6iilkjuluCDq-34" style="edgeStyle=orthogonalEdgeStyle;rounded=0;orthogonalLoop=1;jettySize=auto;html=1;exitX=0.5;exitY=0;exitDx=0;exitDy=0;exitPerimeter=0;dashed=1;startArrow=oval;startFill=0;endArrow=block;endFill=0;" edge="1" parent="wJVDtzto6iilkjuluCDq-2" source="wJVDtzto6iilkjuluCDq-15">
          <mxGeometry relative="1" as="geometry">
            <mxPoint x="909.689655172414" as="targetPoint" />
          </mxGeometry>
        </mxCell>
        <mxCell id="wJVDtzto6iilkjuluCDq-15" value="Уточнить у клиента сделал ли он выбор" style="points=[[0.25,0,0],[0.5,0,0],[0.75,0,0],[1,0.25,0],[1,0.5,0],[1,0.75,0],[0.75,1,0],[0.5,1,0],[0.25,1,0],[0,0.75,0],[0,0.5,0],[0,0.25,0]];shape=mxgraph.bpmn.task2;whiteSpace=wrap;rectStyle=rounded;size=10;html=1;container=1;expand=0;collapsible=0;taskMarker=manual;" vertex="1" parent="wJVDtzto6iilkjuluCDq-2">
          <mxGeometry x="850" y="65" width="120" height="80" as="geometry" />
        </mxCell>
        <mxCell id="wJVDtzto6iilkjuluCDq-14" value="" style="points=[[0.145,0.145,0],[0.5,0,0],[0.855,0.145,0],[1,0.5,0],[0.855,0.855,0],[0.5,1,0],[0.145,0.855,0],[0,0.5,0]];shape=mxgraph.bpmn.event;html=1;verticalLabelPosition=bottom;labelBackgroundColor=#ffffff;verticalAlign=top;align=center;perimeter=ellipsePerimeter;outlineConnect=0;aspect=fixed;outline=catching;symbol=timer;" vertex="1" parent="wJVDtzto6iilkjuluCDq-2">
          <mxGeometry x="720" y="80" width="50" height="50" as="geometry" />
        </mxCell>
        <mxCell id="wJVDtzto6iilkjuluCDq-18" value="" style="points=[[0.25,0.25,0],[0.5,0,0],[0.75,0.25,0],[1,0.5,0],[0.75,0.75,0],[0.5,1,0],[0.25,0.75,0],[0,0.5,0]];shape=mxgraph.bpmn.gateway2;html=1;verticalLabelPosition=bottom;labelBackgroundColor=#ffffff;verticalAlign=top;align=center;perimeter=rhombusPerimeter;outlineConnect=0;outline=standard;symbol=multiple;" vertex="1" parent="wJVDtzto6iilkjuluCDq-2">
          <mxGeometry x="650" y="175" width="50" height="50" as="geometry" />
        </mxCell>
        <mxCell id="wJVDtzto6iilkjuluCDq-19" style="edgeStyle=orthogonalEdgeStyle;rounded=0;orthogonalLoop=1;jettySize=auto;html=1;exitX=1;exitY=0.5;exitDx=0;exitDy=0;exitPerimeter=0;entryX=0;entryY=0.5;entryDx=0;entryDy=0;entryPerimeter=0;" edge="1" parent="wJVDtzto6iilkjuluCDq-2" source="wJVDtzto6iilkjuluCDq-12" target="wJVDtzto6iilkjuluCDq-18">
          <mxGeometry relative="1" as="geometry" />
        </mxCell>
        <mxCell id="wJVDtzto6iilkjuluCDq-20" style="edgeStyle=orthogonalEdgeStyle;rounded=0;orthogonalLoop=1;jettySize=auto;html=1;exitX=0.5;exitY=0;exitDx=0;exitDy=0;exitPerimeter=0;entryX=0;entryY=0.5;entryDx=0;entryDy=0;entryPerimeter=0;" edge="1" parent="wJVDtzto6iilkjuluCDq-2" source="wJVDtzto6iilkjuluCDq-18" target="wJVDtzto6iilkjuluCDq-14">
          <mxGeometry relative="1" as="geometry" />
        </mxCell>
        <mxCell id="wJVDtzto6iilkjuluCDq-21" style="edgeStyle=orthogonalEdgeStyle;rounded=0;orthogonalLoop=1;jettySize=auto;html=1;exitX=1;exitY=0.5;exitDx=0;exitDy=0;exitPerimeter=0;entryX=0;entryY=0.5;entryDx=0;entryDy=0;entryPerimeter=0;" edge="1" parent="wJVDtzto6iilkjuluCDq-2" source="wJVDtzto6iilkjuluCDq-14" target="wJVDtzto6iilkjuluCDq-15">
          <mxGeometry relative="1" as="geometry" />
        </mxCell>
        <mxCell id="wJVDtzto6iilkjuluCDq-23" style="edgeStyle=orthogonalEdgeStyle;rounded=0;orthogonalLoop=1;jettySize=auto;html=1;exitX=0.5;exitY=1;exitDx=0;exitDy=0;exitPerimeter=0;entryX=0;entryY=0.5;entryDx=0;entryDy=0;entryPerimeter=0;" edge="1" parent="wJVDtzto6iilkjuluCDq-2" source="wJVDtzto6iilkjuluCDq-18" target="wJVDtzto6iilkjuluCDq-24">
          <mxGeometry relative="1" as="geometry">
            <mxPoint x="740" y="260" as="targetPoint" />
          </mxGeometry>
        </mxCell>
        <mxCell id="wJVDtzto6iilkjuluCDq-25" style="edgeStyle=orthogonalEdgeStyle;rounded=0;orthogonalLoop=1;jettySize=auto;html=1;exitX=1;exitY=0.5;exitDx=0;exitDy=0;exitPerimeter=0;entryX=0.5;entryY=1;entryDx=0;entryDy=0;entryPerimeter=0;" edge="1" parent="wJVDtzto6iilkjuluCDq-2" source="wJVDtzto6iilkjuluCDq-24" target="wJVDtzto6iilkjuluCDq-26">
          <mxGeometry relative="1" as="geometry">
            <mxPoint x="990" y="280" as="targetPoint" />
          </mxGeometry>
        </mxCell>
        <mxCell id="wJVDtzto6iilkjuluCDq-33" style="edgeStyle=orthogonalEdgeStyle;rounded=0;orthogonalLoop=1;jettySize=auto;html=1;entryX=0.5;entryY=0;entryDx=0;entryDy=0;entryPerimeter=0;dashed=1;startArrow=oval;startFill=0;endArrow=block;endFill=0;" edge="1" parent="wJVDtzto6iilkjuluCDq-2" target="wJVDtzto6iilkjuluCDq-24">
          <mxGeometry relative="1" as="geometry">
            <mxPoint x="800" y="60" as="targetPoint" />
            <mxPoint x="815" as="sourcePoint" />
            <Array as="points">
              <mxPoint x="815" y="20" />
              <mxPoint x="815" y="20" />
            </Array>
          </mxGeometry>
        </mxCell>
        <mxCell id="wJVDtzto6iilkjuluCDq-24" value="" style="points=[[0.145,0.145,0],[0.5,0,0],[0.855,0.145,0],[1,0.5,0],[0.855,0.855,0],[0.5,1,0],[0.145,0.855,0],[0,0.5,0]];shape=mxgraph.bpmn.event;html=1;verticalLabelPosition=bottom;labelBackgroundColor=#ffffff;verticalAlign=top;align=center;perimeter=ellipsePerimeter;outlineConnect=0;aspect=fixed;outline=catching;symbol=message;" vertex="1" parent="wJVDtzto6iilkjuluCDq-2">
          <mxGeometry x="790" y="255" width="50" height="50" as="geometry" />
        </mxCell>
        <mxCell id="wJVDtzto6iilkjuluCDq-31" style="edgeStyle=orthogonalEdgeStyle;rounded=0;orthogonalLoop=1;jettySize=auto;html=1;exitX=1;exitY=0.5;exitDx=0;exitDy=0;exitPerimeter=0;" edge="1" parent="wJVDtzto6iilkjuluCDq-2" source="wJVDtzto6iilkjuluCDq-26" target="wJVDtzto6iilkjuluCDq-30">
          <mxGeometry relative="1" as="geometry" />
        </mxCell>
        <mxCell id="wJVDtzto6iilkjuluCDq-26" value="" style="points=[[0.25,0.25,0],[0.5,0,0],[0.75,0.25,0],[1,0.5,0],[0.75,0.75,0],[0.5,1,0],[0.25,0.75,0],[0,0.5,0]];shape=mxgraph.bpmn.gateway2;html=1;verticalLabelPosition=bottom;labelBackgroundColor=#ffffff;verticalAlign=top;align=center;perimeter=rhombusPerimeter;outlineConnect=0;outline=standard;symbol=multiple;" vertex="1" parent="wJVDtzto6iilkjuluCDq-2">
          <mxGeometry x="980" y="175" width="50" height="50" as="geometry" />
        </mxCell>
        <mxCell id="wJVDtzto6iilkjuluCDq-30" value="" style="points=[[0.25,0.25,0],[0.5,0,0],[0.75,0.25,0],[1,0.5,0],[0.75,0.75,0],[0.5,1,0],[0.25,0.75,0],[0,0.5,0]];shape=mxgraph.bpmn.gateway2;html=1;verticalLabelPosition=bottom;labelBackgroundColor=#ffffff;verticalAlign=top;align=center;perimeter=rhombusPerimeter;outlineConnect=0;outline=none;symbol=none;gwType=exclusive;" vertex="1" parent="wJVDtzto6iilkjuluCDq-2">
          <mxGeometry x="1070" y="175" width="50" height="50" as="geometry" />
        </mxCell>
        <mxCell id="wJVDtzto6iilkjuluCDq-28" value="2 дня" style="text;strokeColor=none;align=center;fillColor=none;html=1;verticalAlign=middle;whiteSpace=wrap;rounded=0;" vertex="1" parent="wJVDtzto6iilkjuluCDq-2">
          <mxGeometry x="715" y="130" width="60" height="30" as="geometry" />
        </mxCell>
        <mxCell id="wJVDtzto6iilkjuluCDq-35" value="Клиент сделал выбрал?" style="text;strokeColor=none;align=center;fillColor=none;html=1;verticalAlign=middle;whiteSpace=wrap;rounded=0;" vertex="1" parent="wJVDtzto6iilkjuluCDq-2">
          <mxGeometry x="1020" y="145" width="60" height="30" as="geometry" />
        </mxCell>
        <mxCell id="wJVDtzto6iilkjuluCDq-36" style="edgeStyle=orthogonalEdgeStyle;rounded=0;orthogonalLoop=1;jettySize=auto;html=1;exitX=0.5;exitY=1;exitDx=0;exitDy=0;exitPerimeter=0;entryX=0.5;entryY=1;entryDx=0;entryDy=0;entryPerimeter=0;" edge="1" parent="wJVDtzto6iilkjuluCDq-2" source="wJVDtzto6iilkjuluCDq-30" target="wJVDtzto6iilkjuluCDq-8">
          <mxGeometry relative="1" as="geometry">
            <Array as="points">
              <mxPoint x="1095" y="320" />
              <mxPoint x="390" y="320" />
            </Array>
          </mxGeometry>
        </mxCell>
        <mxCell id="wJVDtzto6iilkjuluCDq-37" value="Нет" style="text;strokeColor=none;align=center;fillColor=none;html=1;verticalAlign=middle;whiteSpace=wrap;rounded=0;" vertex="1" parent="wJVDtzto6iilkjuluCDq-2">
          <mxGeometry x="1090" y="225" width="60" height="30" as="geometry" />
        </mxCell>
        <mxCell id="wJVDtzto6iilkjuluCDq-38" value="Да" style="text;strokeColor=none;align=center;fillColor=none;html=1;verticalAlign=middle;whiteSpace=wrap;rounded=0;" vertex="1" parent="wJVDtzto6iilkjuluCDq-2">
          <mxGeometry x="1100" y="160" width="60" height="30" as="geometry" />
        </mxCell>
        <mxCell id="wJVDtzto6iilkjuluCDq-39" value="" style="points=[[0.145,0.145,0],[0.5,0,0],[0.855,0.145,0],[1,0.5,0],[0.855,0.855,0],[0.5,1,0],[0.145,0.855,0],[0,0.5,0]];shape=mxgraph.bpmn.event;html=1;verticalLabelPosition=bottom;labelBackgroundColor=#ffffff;verticalAlign=top;align=center;perimeter=ellipsePerimeter;outlineConnect=0;aspect=fixed;outline=end;symbol=terminate2;" vertex="1" parent="wJVDtzto6iilkjuluCDq-2">
          <mxGeometry x="1070" y="65" width="50" height="50" as="geometry" />
        </mxCell>
        <mxCell id="wJVDtzto6iilkjuluCDq-40" style="edgeStyle=orthogonalEdgeStyle;rounded=0;orthogonalLoop=1;jettySize=auto;html=1;exitX=0.5;exitY=0;exitDx=0;exitDy=0;exitPerimeter=0;entryX=0.5;entryY=1;entryDx=0;entryDy=0;entryPerimeter=0;" edge="1" parent="wJVDtzto6iilkjuluCDq-2" source="wJVDtzto6iilkjuluCDq-30" target="wJVDtzto6iilkjuluCDq-39">
          <mxGeometry relative="1" as="geometry" />
        </mxCell>
        <mxCell id="wJVDtzto6iilkjuluCDq-43" style="edgeStyle=orthogonalEdgeStyle;rounded=0;orthogonalLoop=1;jettySize=auto;html=1;entryX=0.5;entryY=0;entryDx=0;entryDy=0;entryPerimeter=0;dashed=1;startArrow=oval;startFill=0;endArrow=block;endFill=0;" edge="1" parent="wJVDtzto6iilkjuluCDq-2" target="wJVDtzto6iilkjuluCDq-41">
          <mxGeometry relative="1" as="geometry">
            <mxPoint x="1229.689655172414" y="70" as="targetPoint" />
            <mxPoint x="1230" as="sourcePoint" />
          </mxGeometry>
        </mxCell>
        <mxCell id="wJVDtzto6iilkjuluCDq-41" value="Оформить договор" style="points=[[0.25,0,0],[0.5,0,0],[0.75,0,0],[1,0.25,0],[1,0.5,0],[1,0.75,0],[0.75,1,0],[0.5,1,0],[0.25,1,0],[0,0.75,0],[0,0.5,0],[0,0.25,0]];shape=mxgraph.bpmn.task2;whiteSpace=wrap;rectStyle=rounded;size=10;html=1;container=1;expand=0;collapsible=0;taskMarker=manual;" vertex="1" parent="wJVDtzto6iilkjuluCDq-2">
          <mxGeometry x="1170" y="160" width="120" height="80" as="geometry" />
        </mxCell>
        <mxCell id="wJVDtzto6iilkjuluCDq-42" style="edgeStyle=orthogonalEdgeStyle;rounded=0;orthogonalLoop=1;jettySize=auto;html=1;exitX=1;exitY=0.5;exitDx=0;exitDy=0;exitPerimeter=0;entryX=0;entryY=0.5;entryDx=0;entryDy=0;entryPerimeter=0;" edge="1" parent="wJVDtzto6iilkjuluCDq-2" source="wJVDtzto6iilkjuluCDq-30" target="wJVDtzto6iilkjuluCDq-41">
          <mxGeometry relative="1" as="geometry" />
        </mxCell>
        <mxCell id="wJVDtzto6iilkjuluCDq-45" style="edgeStyle=orthogonalEdgeStyle;rounded=0;orthogonalLoop=1;jettySize=auto;html=1;exitX=0;exitY=0.5;exitDx=0;exitDy=0;exitPerimeter=0;endArrow=none;startFill=0;dashed=1;" edge="1" parent="wJVDtzto6iilkjuluCDq-2" source="wJVDtzto6iilkjuluCDq-44">
          <mxGeometry relative="1" as="geometry">
            <mxPoint x="1230" y="60.344827586206975" as="targetPoint" />
          </mxGeometry>
        </mxCell>
        <mxCell id="wJVDtzto6iilkjuluCDq-44" value="" style="shape=mxgraph.bpmn.data2;labelPosition=center;verticalLabelPosition=bottom;align=center;verticalAlign=top;size=15;html=1;" vertex="1" parent="wJVDtzto6iilkjuluCDq-2">
          <mxGeometry x="1260" y="40" width="30" height="40" as="geometry" />
        </mxCell>
        <mxCell id="wJVDtzto6iilkjuluCDq-47" style="edgeStyle=orthogonalEdgeStyle;rounded=0;orthogonalLoop=1;jettySize=auto;html=1;exitX=0;exitY=0;exitDx=30;exitDy=27.5;exitPerimeter=0;endArrow=none;startFill=0;dashed=1;" edge="1" parent="wJVDtzto6iilkjuluCDq-2" source="wJVDtzto6iilkjuluCDq-46">
          <mxGeometry relative="1" as="geometry">
            <mxPoint x="1230" y="37.58620689655186" as="targetPoint" />
          </mxGeometry>
        </mxCell>
        <mxCell id="wJVDtzto6iilkjuluCDq-46" value="" style="shape=mxgraph.bpmn.data2;labelPosition=center;verticalLabelPosition=bottom;align=center;verticalAlign=top;size=15;html=1;" vertex="1" parent="wJVDtzto6iilkjuluCDq-2">
          <mxGeometry x="1160" y="10" width="30" height="40" as="geometry" />
        </mxCell>
        <mxCell id="wJVDtzto6iilkjuluCDq-48" value="Документы" style="text;strokeColor=none;align=center;fillColor=none;html=1;verticalAlign=middle;whiteSpace=wrap;rounded=0;" vertex="1" parent="wJVDtzto6iilkjuluCDq-2">
          <mxGeometry x="1140" y="50" width="60" height="30" as="geometry" />
        </mxCell>
        <mxCell id="wJVDtzto6iilkjuluCDq-50" value="Деньги" style="text;strokeColor=none;align=center;fillColor=none;html=1;verticalAlign=middle;whiteSpace=wrap;rounded=0;" vertex="1" parent="wJVDtzto6iilkjuluCDq-2">
          <mxGeometry x="1241" y="80" width="60" height="30" as="geometry" />
        </mxCell>
        <mxCell id="wJVDtzto6iilkjuluCDq-51" value="Отправить документы туроператору на подтверждение и деньгм" style="points=[[0.25,0,0],[0.5,0,0],[0.75,0,0],[1,0.25,0],[1,0.5,0],[1,0.75,0],[0.75,1,0],[0.5,1,0],[0.25,1,0],[0,0.75,0],[0,0.5,0],[0,0.25,0]];shape=mxgraph.bpmn.task2;whiteSpace=wrap;rectStyle=rounded;size=10;html=1;container=1;expand=0;collapsible=0;taskMarker=manual;" vertex="1" parent="wJVDtzto6iilkjuluCDq-2">
          <mxGeometry x="1320" y="160" width="170" height="80" as="geometry" />
        </mxCell>
        <mxCell id="wJVDtzto6iilkjuluCDq-52" style="edgeStyle=orthogonalEdgeStyle;rounded=0;orthogonalLoop=1;jettySize=auto;html=1;exitX=1;exitY=0.5;exitDx=0;exitDy=0;exitPerimeter=0;entryX=0;entryY=0.5;entryDx=0;entryDy=0;entryPerimeter=0;" edge="1" parent="wJVDtzto6iilkjuluCDq-2" source="wJVDtzto6iilkjuluCDq-41" target="wJVDtzto6iilkjuluCDq-51">
          <mxGeometry relative="1" as="geometry" />
        </mxCell>
        <mxCell id="wJVDtzto6iilkjuluCDq-60" style="edgeStyle=orthogonalEdgeStyle;rounded=0;orthogonalLoop=1;jettySize=auto;html=1;exitX=0.5;exitY=0;exitDx=0;exitDy=0;exitPerimeter=0;dashed=1;startArrow=oval;startFill=0;endArrow=block;endFill=0;" edge="1" parent="wJVDtzto6iilkjuluCDq-2" source="wJVDtzto6iilkjuluCDq-58">
          <mxGeometry relative="1" as="geometry">
            <mxPoint x="1545" as="targetPoint" />
          </mxGeometry>
        </mxCell>
        <mxCell id="wJVDtzto6iilkjuluCDq-58" value="" style="points=[[0.145,0.145,0],[0.5,0,0],[0.855,0.145,0],[1,0.5,0],[0.855,0.855,0],[0.5,1,0],[0.145,0.855,0],[0,0.5,0]];shape=mxgraph.bpmn.event;html=1;verticalLabelPosition=bottom;labelBackgroundColor=#ffffff;verticalAlign=top;align=center;perimeter=ellipsePerimeter;outlineConnect=0;aspect=fixed;outline=catching;symbol=message;" vertex="1" parent="wJVDtzto6iilkjuluCDq-2">
          <mxGeometry x="1520" y="175" width="50" height="50" as="geometry" />
        </mxCell>
        <mxCell id="wJVDtzto6iilkjuluCDq-59" style="edgeStyle=orthogonalEdgeStyle;rounded=0;orthogonalLoop=1;jettySize=auto;html=1;exitX=1;exitY=0.5;exitDx=0;exitDy=0;exitPerimeter=0;entryX=0;entryY=0.5;entryDx=0;entryDy=0;entryPerimeter=0;" edge="1" parent="wJVDtzto6iilkjuluCDq-2" source="wJVDtzto6iilkjuluCDq-51" target="wJVDtzto6iilkjuluCDq-58">
          <mxGeometry relative="1" as="geometry" />
        </mxCell>
        <mxCell id="wJVDtzto6iilkjuluCDq-62" style="edgeStyle=orthogonalEdgeStyle;rounded=0;orthogonalLoop=1;jettySize=auto;html=1;dashed=1;startArrow=oval;startFill=0;endArrow=block;endFill=0;exitX=0.156;exitY=1.026;exitDx=0;exitDy=0;exitPerimeter=0;entryX=0.165;entryY=0.021;entryDx=0;entryDy=0;entryPerimeter=0;" edge="1" parent="wJVDtzto6iilkjuluCDq-2" target="wJVDtzto6iilkjuluCDq-63">
          <mxGeometry relative="1" as="geometry">
            <mxPoint x="510.29" y="577.9200000000001" as="targetPoint" />
            <mxPoint x="510.01000000000005" y="239.9999999999999" as="sourcePoint" />
            <Array as="points" />
          </mxGeometry>
        </mxCell>
        <mxCell id="wJVDtzto6iilkjuluCDq-72" style="edgeStyle=orthogonalEdgeStyle;rounded=0;orthogonalLoop=1;jettySize=auto;html=1;exitX=0;exitY=0;exitDx=30;exitDy=27.5;exitPerimeter=0;endArrow=none;startFill=0;dashed=1;" edge="1" parent="wJVDtzto6iilkjuluCDq-2" source="wJVDtzto6iilkjuluCDq-73">
          <mxGeometry relative="1" as="geometry">
            <mxPoint x="1360" y="332.58620689655186" as="targetPoint" />
          </mxGeometry>
        </mxCell>
        <mxCell id="wJVDtzto6iilkjuluCDq-73" value="" style="shape=mxgraph.bpmn.data2;labelPosition=center;verticalLabelPosition=bottom;align=center;verticalAlign=top;size=15;html=1;" vertex="1" parent="wJVDtzto6iilkjuluCDq-2">
          <mxGeometry x="1290" y="305" width="30" height="40" as="geometry" />
        </mxCell>
        <mxCell id="wJVDtzto6iilkjuluCDq-74" value="Документы" style="text;strokeColor=none;align=center;fillColor=none;html=1;verticalAlign=middle;whiteSpace=wrap;rounded=0;" vertex="1" parent="wJVDtzto6iilkjuluCDq-2">
          <mxGeometry x="1271" y="345" width="60" height="30" as="geometry" />
        </mxCell>
        <mxCell id="wJVDtzto6iilkjuluCDq-80" value="" style="shape=mxgraph.bpmn.data2;labelPosition=center;verticalLabelPosition=bottom;align=center;verticalAlign=top;size=15;html=1;" vertex="1" parent="wJVDtzto6iilkjuluCDq-2">
          <mxGeometry x="1160" y="360" width="30" height="40" as="geometry" />
        </mxCell>
        <mxCell id="wJVDtzto6iilkjuluCDq-82" value="Деньги" style="text;strokeColor=none;align=center;fillColor=none;html=1;verticalAlign=middle;whiteSpace=wrap;rounded=0;" vertex="1" parent="wJVDtzto6iilkjuluCDq-2">
          <mxGeometry x="1110" y="400" width="60" height="30" as="geometry" />
        </mxCell>
        <mxCell id="wJVDtzto6iilkjuluCDq-83" value="Контролировать изменение в тур пакете" style="points=[[0.25,0,0],[0.5,0,0],[0.75,0,0],[1,0.25,0],[1,0.5,0],[1,0.75,0],[0.75,1,0],[0.5,1,0],[0.25,1,0],[0,0.75,0],[0,0.5,0],[0,0.25,0]];shape=mxgraph.bpmn.task2;whiteSpace=wrap;rectStyle=rounded;size=10;html=1;container=1;expand=0;collapsible=0;taskMarker=manual;" vertex="1" parent="wJVDtzto6iilkjuluCDq-2">
          <mxGeometry x="1610" y="160" width="170" height="80" as="geometry" />
        </mxCell>
        <mxCell id="wJVDtzto6iilkjuluCDq-84" style="edgeStyle=orthogonalEdgeStyle;rounded=0;orthogonalLoop=1;jettySize=auto;html=1;exitX=1;exitY=0.5;exitDx=0;exitDy=0;exitPerimeter=0;entryX=0;entryY=0.5;entryDx=0;entryDy=0;entryPerimeter=0;" edge="1" parent="wJVDtzto6iilkjuluCDq-2" source="wJVDtzto6iilkjuluCDq-58" target="wJVDtzto6iilkjuluCDq-83">
          <mxGeometry relative="1" as="geometry" />
        </mxCell>
        <mxCell id="wJVDtzto6iilkjuluCDq-85" style="edgeStyle=orthogonalEdgeStyle;rounded=0;orthogonalLoop=1;jettySize=auto;html=1;dashed=1;startArrow=oval;startFill=0;endArrow=block;endFill=0;" edge="1" parent="wJVDtzto6iilkjuluCDq-2">
          <mxGeometry relative="1" as="geometry">
            <mxPoint x="1694.5" as="targetPoint" />
            <mxPoint x="1695" y="160" as="sourcePoint" />
          </mxGeometry>
        </mxCell>
        <mxCell id="wJVDtzto6iilkjuluCDq-91" style="edgeStyle=orthogonalEdgeStyle;rounded=0;orthogonalLoop=1;jettySize=auto;html=1;exitX=1;exitY=0.5;exitDx=0;exitDy=0;exitPerimeter=0;entryX=0;entryY=0.5;entryDx=0;entryDy=0;entryPerimeter=0;" edge="1" parent="wJVDtzto6iilkjuluCDq-2" source="wJVDtzto6iilkjuluCDq-83" target="wJVDtzto6iilkjuluCDq-92">
          <mxGeometry relative="1" as="geometry">
            <mxPoint x="1820" y="200" as="targetPoint" />
          </mxGeometry>
        </mxCell>
        <mxCell id="wJVDtzto6iilkjuluCDq-92" value="" style="points=[[0.145,0.145,0],[0.5,0,0],[0.855,0.145,0],[1,0.5,0],[0.855,0.855,0],[0.5,1,0],[0.145,0.855,0],[0,0.5,0]];shape=mxgraph.bpmn.event;html=1;verticalLabelPosition=bottom;labelBackgroundColor=#ffffff;verticalAlign=top;align=center;perimeter=ellipsePerimeter;outlineConnect=0;aspect=fixed;outline=end;symbol=message;" vertex="1" parent="wJVDtzto6iilkjuluCDq-2">
          <mxGeometry x="1830" y="175" width="50" height="50" as="geometry" />
        </mxCell>
        <mxCell id="wJVDtzto6iilkjuluCDq-93" value="Отправить памятку, пожелания&amp;nbsp; хорошего отпуска" style="text;strokeColor=none;align=center;fillColor=none;html=1;verticalAlign=middle;whiteSpace=wrap;rounded=0;" vertex="1" parent="wJVDtzto6iilkjuluCDq-2">
          <mxGeometry x="1825" y="255" width="60" height="30" as="geometry" />
        </mxCell>
        <mxCell id="wJVDtzto6iilkjuluCDq-94" style="edgeStyle=orthogonalEdgeStyle;rounded=0;orthogonalLoop=1;jettySize=auto;html=1;dashed=1;startArrow=oval;startFill=0;endArrow=block;endFill=0;" edge="1" parent="wJVDtzto6iilkjuluCDq-2">
          <mxGeometry relative="1" as="geometry">
            <mxPoint x="1854" as="targetPoint" />
            <mxPoint x="1854.91" y="175" as="sourcePoint" />
          </mxGeometry>
        </mxCell>
        <mxCell id="wJVDtzto6iilkjuluCDq-95" value="" style="shape=mxgraph.bpmn.data2;labelPosition=center;verticalLabelPosition=bottom;align=center;verticalAlign=top;size=15;html=1;" vertex="1" parent="wJVDtzto6iilkjuluCDq-2">
          <mxGeometry x="1490" y="30" width="30" height="40" as="geometry" />
        </mxCell>
        <mxCell id="wJVDtzto6iilkjuluCDq-97" value="Документы,&lt;div&gt;Ваучеры&lt;/div&gt;" style="text;strokeColor=none;align=center;fillColor=none;html=1;verticalAlign=middle;whiteSpace=wrap;rounded=0;" vertex="1" parent="wJVDtzto6iilkjuluCDq-2">
          <mxGeometry x="1475" y="75" width="60" height="30" as="geometry" />
        </mxCell>
        <mxCell id="wJVDtzto6iilkjuluCDq-55" style="edgeStyle=orthogonalEdgeStyle;rounded=0;orthogonalLoop=1;jettySize=auto;html=1;exitX=0.25;exitY=1;exitDx=0;exitDy=0;exitPerimeter=0;entryX=0.5;entryY=0;entryDx=0;entryDy=0;entryPerimeter=0;dashed=1;startArrow=oval;startFill=0;endArrow=block;endFill=0;" edge="1" parent="1" source="wJVDtzto6iilkjuluCDq-51" target="wJVDtzto6iilkjuluCDq-65">
          <mxGeometry relative="1" as="geometry">
            <mxPoint x="1289.9099999999999" y="1203.66" as="targetPoint" />
            <Array as="points">
              <mxPoint x="1303" y="1130" />
              <mxPoint x="1050" y="1130" />
            </Array>
          </mxGeometry>
        </mxCell>
        <mxCell id="wJVDtzto6iilkjuluCDq-57" value="Заказчик" style="swimlane;html=1;startSize=20;fontStyle=0;collapsible=0;horizontal=1;swimlaneLine=0;fillColor=#FFFFFF;whiteSpace=wrap;gradientColor=none;swimlaneFillColor=#FFFFFF;" vertex="1" parent="1">
          <mxGeometry x="-70" y="650" width="2070" height="50" as="geometry" />
        </mxCell>
        <mxCell id="wJVDtzto6iilkjuluCDq-81" style="edgeStyle=orthogonalEdgeStyle;rounded=0;orthogonalLoop=1;jettySize=auto;html=1;exitX=0.5;exitY=1;exitDx=0;exitDy=0;exitPerimeter=0;endArrow=none;startFill=0;dashed=1;" edge="1" parent="1" source="wJVDtzto6iilkjuluCDq-80">
          <mxGeometry relative="1" as="geometry">
            <mxPoint x="1115" y="1130" as="targetPoint" />
            <mxPoint x="1270" y="1043" as="sourcePoint" />
          </mxGeometry>
        </mxCell>
        <mxCell id="wJVDtzto6iilkjuluCDq-56" style="edgeStyle=orthogonalEdgeStyle;rounded=0;orthogonalLoop=1;jettySize=auto;html=1;dashed=1;startArrow=oval;startFill=0;endArrow=block;endFill=0;exitX=0.5;exitY=0;exitDx=0;exitDy=0;exitPerimeter=0;" edge="1" parent="1" source="wJVDtzto6iilkjuluCDq-78" target="wJVDtzto6iilkjuluCDq-58">
          <mxGeometry relative="1" as="geometry">
            <mxPoint x="1490" y="1340" as="sourcePoint" />
            <mxPoint x="1500" y="940" as="targetPoint" />
            <Array as="points">
              <mxPoint x="1540" y="1160" />
              <mxPoint x="1475" y="1160" />
            </Array>
          </mxGeometry>
        </mxCell>
        <mxCell id="wJVDtzto6iilkjuluCDq-89" style="edgeStyle=orthogonalEdgeStyle;rounded=0;orthogonalLoop=1;jettySize=auto;html=1;exitX=0.5;exitY=0;exitDx=0;exitDy=0;exitPerimeter=0;entryX=0.5;entryY=1;entryDx=0;entryDy=0;entryPerimeter=0;dashed=1;endArrow=block;endFill=0;startArrow=oval;startFill=0;" edge="1" parent="1" source="wJVDtzto6iilkjuluCDq-86" target="wJVDtzto6iilkjuluCDq-83">
          <mxGeometry relative="1" as="geometry" />
        </mxCell>
        <mxCell id="wJVDtzto6iilkjuluCDq-96" style="edgeStyle=orthogonalEdgeStyle;rounded=0;orthogonalLoop=1;jettySize=auto;html=1;exitX=0.5;exitY=1;exitDx=0;exitDy=0;exitPerimeter=0;endArrow=none;startFill=0;dashed=1;" edge="1" parent="1" source="wJVDtzto6iilkjuluCDq-95">
          <mxGeometry relative="1" as="geometry">
            <mxPoint x="1470" y="770" as="targetPoint" />
            <mxPoint x="1130" y="748" as="sourcePoint" />
            <Array as="points">
              <mxPoint x="1460" y="770" />
              <mxPoint x="1460" y="770" />
            </Array>
          </mxGeometry>
        </mxCell>
      </root>
    </mxGraphModel>
  </diagram>
</mxfile>
